<?xml version="1.0" standalone="no"?>
<!DOCTYPE svg PUBLIC "-//W3C//DTD SVG 20010904//EN"
 "http://www.w3.org/TR/2001/REC-SVG-20010904/DTD/svg10.dtd">
<svg version="1.0" xmlns="http://www.w3.org/2000/svg"
 width="120.000000pt" height="120.000000pt" viewBox="0 0 120.000000 120.000000"
 preserveAspectRatio="xMidYMid meet">
<metadata>
Created by potrace 1.11, written by Peter Selinger 2001-2013
</metadata>
<g transform="translate(0.000000,120.000000) scale(0.100000,-0.100000)"
fill="#000000" stroke="none">
<path d="M181 1158 c-10 -3 -20 -12 -22 -20 -10 -32 -2 -1079 8 -1089 8 -8
146 -11 434 -11 361 -1 424 2 433 14 8 10 11 144 10 419 0 373 -2 407 -19 444
-28 60 -159 186 -228 220 l-58 28 -270 1 c-149 1 -278 -2 -288 -6z"/>
</g>
</svg>
